M48
; DRILL file KiCad 10.0.4 date 2026-07-09T15:59:59
; FORMAT={-:-/ absolute / metric / decimal}
; #@! TF.CreationDate,2026-07-09T15:59:59-07:00
; #@! TF.GenerationSoftware,Kicad,Pcbnew,10.0.4
; #@! TF.FileFunction,Plated,1,2,PTH
FMAT,2
METRIC
; #@! TA.AperFunction,Plated,PTH,ViaDrill
T1C0.300
; #@! TA.AperFunction,Plated,PTH,ComponentDrill
T2C0.400
; #@! TA.AperFunction,Plated,PTH,ComponentDrill
T3C0.460
; #@! TA.AperFunction,Plated,PTH,ComponentDrill
T4C0.600
%
G90
G05
T1
X139.0Y-76.0
X140.52Y-77.48
X143.0Y-78.0
X149.0Y-79.0
X150.0Y-80.0
X151.905Y-81.905
X154.0Y-78.0
X154.0Y-79.0
X154.0Y-80.0
X155.0Y-78.0
X155.0Y-79.0
X155.0Y-80.0
X157.095Y-81.905
X159.5Y-79.5
X161.0Y-78.0
X166.0Y-77.0
T2
X145.9Y-72.0
X145.9Y-73.35
X146.75Y-72.0
X146.75Y-73.35
X147.6Y-72.0
X147.6Y-73.35
X148.45Y-72.0
X148.45Y-73.35
X149.3Y-72.0
X149.3Y-73.35
X150.15Y-72.0
X150.15Y-73.35
X151.0Y-72.0
X151.0Y-73.35
X151.85Y-72.0
X151.85Y-73.35
T3
X138.852Y-71.605
X138.852Y-80.365
X166.56Y-72.62
X166.56Y-81.38
T4
G00X144.55Y-69.39
M15
G01X144.55Y-68.59
M16
G05
G00X144.55Y-73.12
M15
G01X144.55Y-71.62
M16
G05
G00X153.2Y-69.39
M15
G01X153.2Y-68.59
M16
G05
G00X153.2Y-73.12
M15
G01X153.2Y-71.62
M16
G05
M30
